<?xml version="1.0" encoding="UTF-8" standalone="no"?>
<svg
   version="1.1"
   id="Layer_1"
   x="0px"
   y="0px"
   width="100%"
   viewBox="0 0 335 168"
   enable-background="new 0 0 335 168"
   xml:space="preserve"
   sodipodi:docname="assumption.svg"
   inkscape:version="1.2.2 (b0a8486, 2022-12-01)"
   xmlns:inkscape="http://www.inkscape.org/namespaces/inkscape"
   xmlns:sodipodi="http://sodipodi.sourceforge.net/DTD/sodipodi-0.dtd"
   xmlns="http://www.w3.org/2000/svg"
   xmlns:svg="http://www.w3.org/2000/svg"><defs
   id="defs80" /><sodipodi:namedview
   id="namedview78"
   pagecolor="#ffffff"
   bordercolor="#111111"
   borderopacity="1"
   inkscape:showpageshadow="0"
   inkscape:pageopacity="0"
   inkscape:pagecheckerboard="1"
   inkscape:deskcolor="#d1d1d1"
   showgrid="false"
   inkscape:zoom="3.719403"
   inkscape:cx="167.5"
   inkscape:cy="84.01886"
   inkscape:window-width="1390"
   inkscape:window-height="1205"
   inkscape:window-x="0"
   inkscape:window-y="25"
   inkscape:window-maximized="0"
   inkscape:current-layer="Layer_1" />

<path
   fill="#3C608C"
   opacity="1.000000"
   stroke="none"
   d=" M153.468658,169.000000   C151.769913,168.037857 150.638351,166.900391 149.292526,166.144211   C143.718018,163.011902 138.126160,159.901657 132.429321,157.002106   C131.031982,156.290878 129.136215,155.953842 127.602097,156.217041   C119.210556,157.656616 110.842140,160.753601 102.499573,160.646622   C83.755440,160.406204 65.889442,156.591095 51.218014,143.149109   C48.434193,140.598557 43.020405,140.682373 38.746323,140.046631   C31.239613,138.930084 24.187820,136.600159 18.401474,131.729889   C10.554227,125.124985 5.913332,113.090691 16.715807,101.226479   C14.700921,99.534752 12.677505,97.862274 10.682515,96.156548   C-2.264214,85.087074 2.222424,68.517563 15.583230,61.892632   C20.983131,59.215099 26.763388,57.304653 32.661350,54.927952   C32.043381,38.796795 41.880920,28.951178 55.642963,22.484833   C72.600952,14.516814 90.345657,13.937811 108.359360,18.928562   C109.793694,19.325947 111.989174,19.153481 113.078842,18.293205   C131.544556,3.714793 151.505371,2.571716 172.653976,11.324331   C173.855820,11.821729 175.000504,12.457173 175.714813,11.643657   C182.552460,8.349506 189.390106,5.055356 196.113876,1.380603   C202.687637,1.000000 209.375290,1.000000 216.417664,1.380505   C219.580612,2.868901 222.665070,3.554425 225.139297,5.172883   C230.243195,8.511466 234.914795,9.364869 240.259323,5.545040   C242.388596,4.023233 245.489166,3.906337 248.070465,2.943220   C248.847198,2.653408 249.364075,1.667192 250.000000,1.000000   C257.020966,1.000000 264.041901,1.000000 271.422119,1.385219   C272.440063,2.177161 273.049438,2.784675 273.764893,2.960482   C284.546967,5.609972 293.869080,10.224728 299.050354,20.859901   C299.555969,21.897703 301.258362,22.421135 302.482056,23.028685   C308.325195,25.929745 314.583252,28.194914 319.963196,31.781900   C327.846771,37.038116 331.704651,48.287716 329.369720,56.161358   C327.735840,61.670982 330.453247,67.752548 336.000000,71.000000   C336.000000,79.020897 336.000000,87.041801 335.676239,95.324997   C333.304565,98.146904 331.374908,100.812683 329.188354,103.247780   C319.627228,113.895706 306.843445,117.952469 293.212677,120.418831   C290.473511,133.599014 281.575806,141.219635 269.803589,145.817444   C256.173340,151.140930 242.191833,151.455841 228.067688,147.589523   C226.673828,147.207977 224.150848,147.280869 223.582306,148.116257   C217.120178,157.611801 207.772217,162.892105 197.405228,166.861298   C196.467941,167.220154 195.795471,168.270691 195.000000,169.000000   C181.312439,169.000000 167.624878,169.000000 153.468658,169.000000  M331.383759,75.430031   C329.300720,71.931786 327.217682,68.433540 325.070068,64.826797   C321.852875,67.526566 319.418701,69.809402 316.709778,71.698204   C315.881897,72.275467 314.299255,71.770256 313.062256,71.760773   C313.456848,70.710381 313.598541,69.428078 314.302032,68.660980   C315.524261,67.328285 317.187714,66.411942 318.501740,65.149818   C325.567383,58.363239 327.272278,50.669014 323.468475,43.101444   C319.087677,34.385921 307.119873,27.403749 299.093994,28.569824   C298.170959,28.703930 296.327423,27.147243 296.012115,26.056168   C294.132385,19.551952 289.955994,15.075209 284.286682,11.760801   C267.732117,2.082664 244.509415,4.588633 230.258972,17.422710   C229.416519,18.181446 227.578644,17.834923 224.972733,18.153019   C227.049469,15.257036 228.008194,13.920090 228.962036,12.589966   C214.681870,1.382197 184.774384,4.794630 177.227051,19.484344   C176.814285,20.287703 175.622894,20.935804 174.690125,21.114544   C174.279861,21.193165 173.005356,19.700443 173.152115,19.282087   C174.319336,15.954737 171.563812,15.660294 169.778885,14.912770   C155.392120,8.887610 140.922165,8.856212 126.612930,15.023922   C122.920670,16.615400 119.665825,19.221699 115.532951,21.781143   C118.744621,23.748444 120.913521,25.076994 123.082420,26.405546   C122.989876,26.981071 122.897339,27.556599 122.804794,28.132124   C121.325851,28.132124 119.575775,28.656281 118.409042,28.052738   C103.265930,20.219309 87.358940,18.498402 70.850357,22.058514   C59.697121,24.463734 49.674706,29.154125 42.415733,38.372971   C37.111618,45.109158 35.587727,52.648430 38.312077,60.946644   C38.499702,61.518143 37.793098,62.762856 37.176083,63.103481   C36.645061,63.396637 35.630215,62.900517 34.860386,62.655636   C33.303295,62.160328 31.508104,60.801888 30.268337,61.205139   C25.412003,62.784710 20.390249,64.346718 16.072121,66.971642   C10.021234,70.649887 6.277147,76.287148 8.010317,83.795097   C9.786224,91.488190 15.340757,95.997925 22.647512,97.988686   C27.895649,99.418579 33.413929,99.835335 38.772297,100.901993   C39.748161,101.096245 40.534016,102.245018 41.407581,102.953156   C40.460682,103.583397 39.458702,104.820953 38.576229,104.740913   C34.283627,104.351585 30.033474,103.514030 25.745371,103.044495   C24.253168,102.881104 22.329386,102.796127 21.226831,103.567467   C14.337593,108.387024 12.635083,117.833939 18.097551,124.244316   C21.112280,127.782196 25.286730,130.716949 29.501455,132.764557   C37.519394,136.659882 46.147594,137.071075 54.755928,134.564713   C57.685970,133.711624 58.734215,134.607834 58.629173,137.516342   C57.173218,138.089279 55.818371,138.622437 54.397579,139.181534   C68.062035,155.157181 107.241638,161.543213 127.453255,151.060226   C126.589500,149.518356 125.728806,147.981918 124.868103,146.445496   C125.106476,145.972382 125.344841,145.499268 125.583206,145.026154   C126.914200,145.562714 128.520996,145.791031 129.526825,146.691010   C133.212494,149.988770 136.172226,154.446991 140.347061,156.790649   C162.727188,169.354355 185.447754,169.272461 207.867065,156.782837   C214.524231,153.074173 219.595291,147.611298 222.170456,140.060486   C222.747314,138.369064 221.655777,134.435211 225.590454,135.540207   C226.234131,135.720963 225.967712,139.102188 226.151611,141.001328   C226.181107,141.305923 226.367249,141.595352 226.824066,142.786102   C232.050110,143.647369 237.721924,145.153564 243.450195,145.413040   C257.500305,146.049438 270.732178,143.260529 281.338623,133.196503   C290.799194,124.219772 291.157074,111.770370 281.819733,102.693596   C277.868713,98.852798 272.687408,96.135284 267.745148,93.509926   C264.791779,91.941093 265.222137,90.852028 266.917419,88.767952   C279.941162,93.611343 289.905243,101.081398 292.751282,115.610802   C304.838654,114.004120 315.513062,110.203995 324.121765,101.948776   C331.480042,94.892632 334.875824,86.427696 331.383759,75.430031  z"
   id="path67" />



<path
   fill="#DBE6F2"
   opacity="1.000000"
   stroke="none"
   d=" M331.546509,75.793045   C334.875824,86.427696 331.480042,94.892632 324.121765,101.948776   C315.513062,110.203995 304.838654,114.004120 292.751282,115.610802   C289.905243,101.081398 279.941162,93.611343 266.917419,88.767952   C265.222137,90.852028 264.791779,91.941093 267.745148,93.509926   C272.687408,96.135284 277.868713,98.852798 281.819733,102.693596   C291.157074,111.770370 290.799194,124.219772 281.338623,133.196503   C270.732178,143.260529 257.500305,146.049438 243.450195,145.413040   C237.721924,145.153564 232.050110,143.647369 226.824066,142.786102   C226.367249,141.595352 226.181107,141.305923 226.151611,141.001328   C225.967712,139.102188 226.234131,135.720963 225.590454,135.540207   C221.655777,134.435211 222.747314,138.369064 222.170456,140.060486   C219.595291,147.611298 214.524231,153.074173 207.867065,156.782837   C185.447754,169.272461 162.727188,169.354355 140.347061,156.790649   C136.172226,154.446991 133.212494,149.988770 129.526825,146.691010   C128.520996,145.791031 126.914200,145.562714 125.583206,145.026154   C125.344841,145.499268 125.106476,145.972382 124.868103,146.445496   C125.728806,147.981918 126.589500,149.518356 127.453255,151.060226   C107.241638,161.543213 68.062035,155.157181 54.397579,139.181534   C55.818371,138.622437 57.173218,138.089279 58.629173,137.516342   C58.734215,134.607834 57.685970,133.711624 54.755928,134.564713   C46.147594,137.071075 37.519394,136.659882 29.501455,132.764557   C25.286730,130.716949 21.112280,127.782196 18.097551,124.244316   C12.635083,117.833939 14.337593,108.387024 21.226831,103.567467   C22.329386,102.796127 24.253168,102.881104 25.745371,103.044495   C30.033474,103.514030 34.283627,104.351585 38.576229,104.740913   C39.458702,104.820953 40.460682,103.583397 41.407585,102.953156   C40.534016,102.245018 39.748161,101.096245 38.772297,100.901993   C33.413929,99.835335 27.895649,99.418579 22.647512,97.988686   C15.340757,95.997925 9.786224,91.488190 8.010317,83.795097   C6.277147,76.287148 10.021234,70.649887 16.072121,66.971642   C20.390249,64.346718 25.412003,62.784710 30.268337,61.205139   C31.508104,60.801888 33.303295,62.160328 34.860386,62.655636   C35.630215,62.900517 36.645061,63.396637 37.176083,63.103481   C37.793098,62.762856 38.499702,61.518143 38.312077,60.946644   C35.587727,52.648430 37.111618,45.109158 42.415733,38.372971   C49.674706,29.154125 59.697121,24.463734 70.850357,22.058514   C87.358940,18.498402 103.265930,20.219309 118.409042,28.052738   C119.575775,28.656281 121.325851,28.132124 122.804794,28.132124   C122.897339,27.556599 122.989876,26.981071 123.082420,26.405546   C120.913521,25.076994 118.744621,23.748444 115.532951,21.781143   C119.665825,19.221699 122.920670,16.615400 126.612930,15.023922   C140.922165,8.856212 155.392120,8.887610 169.778885,14.912770   C171.563812,15.660294 174.319336,15.954737 173.152115,19.282087   C173.005356,19.700443 174.279861,21.193165 174.690125,21.114544   C175.622894,20.935804 176.814285,20.287703 177.227051,19.484344   C184.774384,4.794630 214.681870,1.382197 228.962036,12.589966   C228.008194,13.920090 227.049469,15.257036 224.972733,18.153019   C227.578644,17.834923 229.416519,18.181446 230.258972,17.422710   C244.509415,4.588633 267.732117,2.082664 284.286682,11.760801   C289.955994,15.075209 294.132385,19.551952 296.012115,26.056168   C296.327423,27.147243 298.170959,28.703930 299.093994,28.569824   C307.119873,27.403749 319.087677,34.385921 323.468475,43.101444   C327.272278,50.669014 325.567383,58.363239 318.501740,65.149818   C317.187714,66.411942 315.524261,67.328285 314.302032,68.660980   C313.598541,69.428078 313.456848,70.710381 313.062256,71.760773   C314.299255,71.770256 315.881897,72.275467 316.709778,71.698204   C319.418701,69.809402 321.852875,67.526566 325.070068,64.826797   C327.217682,68.433540 329.300720,71.931786 331.546509,75.793045  z"
   id="path75" />
</svg>
